<svg width="30" height="30" viewBox="0 0 30 30" fill="none" xmlns="http://www.w3.org/2000/svg">
<path d="M28.3334 21.56V25.56C28.3349 25.9313 28.2589 26.2989 28.1101 26.6391C27.9613 26.9793 27.7431 27.2848 27.4695 27.5358C27.1959 27.7868 26.8728 27.9779 26.5211 28.0969C26.1693 28.2159 25.7966 28.2601 25.4267 28.2266C21.3239 27.7808 17.3827 26.3788 13.9201 24.1333C10.6985 22.0862 7.96719 19.3549 5.92007 16.1333C3.66671 12.6549 2.2644 8.69463 1.82674 4.5733C1.79342 4.20459 1.83724 3.83298 1.95541 3.48213C2.07357 3.13128 2.2635 2.80889 2.51309 2.53546C2.76269 2.26204 3.06648 2.04358 3.40513 1.894C3.74378 1.74441 4.10986 1.66698 4.48007 1.66663H8.48007C9.12715 1.66026 9.75446 1.8894 10.2451 2.31134C10.7357 2.73328 11.0562 3.31923 11.1467 3.95997C11.3156 5.24006 11.6287 6.49694 12.0801 7.70663C12.2595 8.18387 12.2983 8.70252 12.1919 9.20114C12.0856 9.69976 11.8386 10.1574 11.4801 10.52L9.78674 12.2133C11.6848 15.5514 14.4487 18.3152 17.7867 20.2133L19.4801 18.52C19.8426 18.1615 20.3003 17.9144 20.7989 17.8081C21.2975 17.7018 21.8162 17.7406 22.2934 17.92C23.5031 18.3714 24.76 18.6845 26.0401 18.8533C26.6878 18.9447 27.2793 19.2709 27.7021 19.77C28.125 20.269 28.3496 20.9061 28.3334 21.56Z" stroke="#D1D5DB" stroke-width="2" stroke-linecap="round" stroke-linejoin="round"/>
</svg>
